<svg xmlns="http://www.w3.org/2000/svg" width="1120" height="760" viewBox="0 0 1120 760" role="img" aria-labelledby="title desc">
  <title id="title">FLIR thermal app expected landscape runtime screen</title>
  <desc id="desc">Mockup of the Waveshare 480 by 320 landscape touch screen showing live thermal viewport, status bar orientation indicator, two-finger pinch zoom state, hot/cold annotation toggle, center annotation toggle, custom spot markers, TF-card free-space status, temperature readouts, palette scale, compact controls, and red PMIC shutdown power control.</desc>
  <defs>
    <style>
      .page { fill: #f7f8fb; }
      .device { fill: #111827; }
      .screen { fill: #0f172a; }
      .panel { fill: #172033; }
      .small { font: 14px Arial, sans-serif; fill: #cbd5e1; }
      .tiny { font: 12px Arial, sans-serif; fill: #94a3b8; }
      .title { font: 700 34px Arial, sans-serif; fill: #334155; }
      .label { font: 700 14px Arial, sans-serif; fill: #f8fafc; }
      .button { fill: #27364f; stroke: #475569; stroke-width: 1.5; }
      .buttonText { font: 700 15px Arial, sans-serif; fill: #e5e7eb; }
      .line { fill: none; stroke: #0ea5e9; stroke-width: 2.75; stroke-linecap: round; stroke-linejoin: round; }
      .line-left { fill: none; stroke: #f97316; stroke-width: 2.75; stroke-linecap: round; stroke-linejoin: round; }
      .callout { font: 16px Arial, sans-serif; fill: #334155; }
      .calloutTitle { font: 700 18px Arial, sans-serif; fill: #111827; }
      .hot { stroke: #fffbeb; stroke-width: 3; fill: none; }
      .cold { stroke: #dbeafe; stroke-width: 3; fill: none; }
    </style>
    <linearGradient id="thermal" x1="0" y1="1" x2="1" y2="0">
      <stop offset="0" stop-color="#111827"/>
      <stop offset="0.18" stop-color="#1e3a8a"/>
      <stop offset="0.36" stop-color="#2563eb"/>
      <stop offset="0.52" stop-color="#16a34a"/>
      <stop offset="0.66" stop-color="#facc15"/>
      <stop offset="0.82" stop-color="#f97316"/>
      <stop offset="1" stop-color="#dc2626"/>
    </linearGradient>
    <linearGradient id="palette" x1="0" y1="1" x2="0" y2="0">
      <stop offset="0" stop-color="#111827"/>
      <stop offset="0.22" stop-color="#1e40af"/>
      <stop offset="0.44" stop-color="#16a34a"/>
      <stop offset="0.64" stop-color="#facc15"/>
      <stop offset="0.82" stop-color="#f97316"/>
      <stop offset="1" stop-color="#fef3c7"/>
    </linearGradient>
    <radialGradient id="hotBlob" cx="0.62" cy="0.36" r="0.36">
      <stop offset="0" stop-color="#fef3c7"/>
      <stop offset="0.18" stop-color="#f97316"/>
      <stop offset="0.45" stop-color="#dc2626"/>
      <stop offset="0.72" stop-color="#2563eb"/>
      <stop offset="1" stop-color="#111827"/>
    </radialGradient>
    <radialGradient id="warmBlob" cx="0.28" cy="0.68" r="0.32">
      <stop offset="0" stop-color="#facc15"/>
      <stop offset="0.28" stop-color="#16a34a"/>
      <stop offset="0.65" stop-color="#2563eb"/>
      <stop offset="1" stop-color="#111827"/>
    </radialGradient>
  </defs>

  <rect class="page" width="1120" height="760"/>
  <text class="title" x="560" y="50" text-anchor="middle">Expected FLIR App Runtime Screen</text>
  <text class="callout" x="560" y="76" text-anchor="middle">
    <tspan x="560" dy="0">Default landscape orientation on the Waveshare 3.5B built-in 480x320 touch LCD</tspan>
    <tspan x="560" dy="20">262K-color render target</tspan>
  </text>

  <rect class="device" x="216" y="154" width="560" height="370" rx="30"/>
  <rect class="screen" x="246" y="184" width="500" height="310" rx="4"/>

  <rect class="panel" x="246" y="184" width="500" height="36"/>
  <rect x="258" y="196" width="28" height="16" rx="3" fill="none" stroke="#f8fafc" stroke-width="2"/>
  <rect x="263" y="200" width="18" height="8" fill="#475569"/>
  <rect x="283" y="202" width="1" height="4" fill="#f8fafc"/>
  <rect x="300" y="194" width="14" height="14" fill="none" stroke="#e5e7eb" stroke-width="1.5"/>
  <rect x="312" y="207" width="8" height="3" fill="#e5e7eb"/>
  <rect x="304" y="201" width="7" height="2" fill="#e5e7eb"/>
  <rect x="306" y="198" width="2" height="8" fill="#e5e7eb"/>
  <rect x="336" y="194" width="8" height="16" fill="none" stroke="#e5e7eb" stroke-width="1.2"/>
  <rect x="338" y="203" width="4" height="5" fill="#fffbeb"/>
  <rect x="350" y="194" width="8" height="16" fill="none" stroke="#e5e7eb" stroke-width="1.2"/>
  <rect x="352" y="203" width="4" height="5" fill="#dbeafe"/>
  <rect x="379" y="194" width="16" height="16" fill="none" stroke="#e5e7eb" stroke-width="1.2"/>
  <rect x="374" y="202" width="7" height="2" fill="#e5e7eb"/>
  <rect x="393" y="202" width="7" height="2" fill="#e5e7eb"/>
  <rect x="386" y="189" width="2" height="7" fill="#e5e7eb"/>
  <rect x="386" y="208" width="2" height="7" fill="#e5e7eb"/>
  <rect x="410" y="194" width="16" height="16" fill="none" stroke="#f472b6" stroke-width="1.2"/>
  <rect x="406" y="202" width="8" height="2" fill="#f472b6"/>
  <rect x="422" y="202" width="8" height="2" fill="#f472b6"/>
  <rect x="417" y="190" width="2" height="8" fill="#f472b6"/>
  <rect x="417" y="206" width="2" height="8" fill="#f472b6"/>
  <rect x="422" y="192" width="3" height="3" fill="#f472b6"/>
  <rect x="414" y="200" width="3" height="3" fill="#f472b6"/>
  <rect x="406" y="208" width="3" height="3" fill="#f472b6"/>
  <text class="label" x="444" y="207">LIVE</text>
  <circle cx="486" cy="202" r="5" fill="#22c55e"/>
  <text class="small" x="512" y="207">8.6 fps</text>
  <text class="small" x="716" y="201" text-anchor="end">TF OK</text>
  <text class="tiny" x="716" y="215" text-anchor="end">FREE 14.8G</text>

  <rect x="246" y="228" width="420" height="208" fill="url(#thermal)"/>
  <rect x="246" y="228" width="420" height="208" fill="url(#hotBlob)" opacity="0.82"/>
  <rect x="246" y="228" width="420" height="208" fill="url(#warmBlob)" opacity="0.55"/>
  <path d="M246 284 C318 254 360 292 413 264 C488 226 558 258 666 240" fill="none" stroke="#fef3c7" stroke-width="2" opacity="0.45"/>
  <path d="M246 378 C314 344 380 398 443 366 C516 332 590 374 666 338" fill="none" stroke="#93c5fd" stroke-width="2" opacity="0.5"/>
  <rect class="hot" x="514" y="288" width="28" height="28"/>
  <text class="label" x="552" y="295">
    <tspan x="552" dy="0">HOT</tspan>
    <tspan x="552" dy="18">36.8 C</tspan>
  </text>
  <rect class="cold" x="322" y="380" width="24" height="24"/>
  <text class="label" x="354" y="385">
    <tspan x="354" dy="0">COLD</tspan>
    <tspan x="354" dy="18">23.4 C</tspan>
  </text>
  <line x1="438" y1="332" x2="474" y2="332" stroke="#f8fafc" stroke-width="3"/>
  <line x1="456" y1="314" x2="456" y2="350" stroke="#f8fafc" stroke-width="3"/>
  <text class="label" x="478" y="329">CTR 29.7 C</text>
  <rect x="438" y="258" width="20" height="20" fill="none" stroke="#f472b6" stroke-width="3"/>
  <line x1="431" y1="268" x2="465" y2="268" stroke="#f472b6" stroke-width="3"/>
  <line x1="448" y1="251" x2="448" y2="285" stroke="#f472b6" stroke-width="3"/>
  <text class="label" x="466" y="260">M1 31.4 C</text>

  <rect x="676" y="228" width="16" height="208" fill="url(#palette)"/>
  <text class="tiny" x="684" y="223" text-anchor="middle">38 C</text>
  <text class="tiny" x="684" y="454" text-anchor="middle">22 C</text>

  <rect class="panel" x="704" y="228" width="42" height="208"/>
  <text class="tiny" x="711" y="250">
    <tspan x="711" dy="0">CTR</tspan>
    <tspan class="label" x="711" dy="20">29.7</tspan>
  </text>
  <text class="tiny" x="711" y="320">
    <tspan x="711" dy="0">RNG</tspan>
    <tspan class="label" x="711" dy="20">AUTO</tspan>
  </text>
  <text class="tiny" x="711" y="390">
    <tspan x="711" dy="0">PAL</tspan>
    <tspan class="label" x="711" dy="20">IRON</tspan>
  </text>

  <rect class="button" x="326" y="464" width="42" height="26" rx="5"/>
  <rect x="340" y="471" width="7" height="4" fill="#ef4444"/>
  <rect x="350" y="471" width="7" height="4" fill="#facc15"/>
  <rect x="340" y="477" width="7" height="4" fill="#22c55e"/>
  <rect x="350" y="477" width="7" height="4" fill="#3b82f6"/>
  <rect x="338" y="469" width="22" height="14" fill="none" stroke="#e5e7eb" stroke-width="1"/>
  <rect class="button" x="376" y="464" width="42" height="26" rx="5"/>
  <rect x="385" y="470" width="24" height="14" fill="none" stroke="#e5e7eb" stroke-width="1.4"/>
  <rect x="388" y="480" width="4" height="4" fill="#64748b"/>
  <rect x="394" y="476" width="4" height="8" fill="#e5e7eb"/>
  <rect x="400" y="471" width="4" height="13" fill="#fffbeb"/>
  <rect class="button" x="426" y="464" width="42" height="26" rx="5"/>
  <rect x="434" y="472" width="26" height="12" fill="none" stroke="#e5e7eb" stroke-width="1.5"/>
  <rect x="439" y="468" width="9" height="4" fill="#e5e7eb"/>
  <rect x="443" y="475" width="8" height="8" fill="none" stroke="#e5e7eb" stroke-width="1.2"/>
  <rect class="button" x="476" y="464" width="42" height="26" rx="5"/>
  <rect x="485" y="470" width="24" height="14" fill="none" stroke="#e5e7eb" stroke-width="1.5"/>
  <polygon points="490,473 490,481 497,477" fill="#e5e7eb"/>
  <rect x="505" y="473" width="8" height="10" fill="none" stroke="#e5e7eb" stroke-width="1.2"/>
  <rect class="button" x="526" y="464" width="42" height="26" rx="5"/>
  <rect x="541" y="472" width="12" height="8" fill="none" stroke="#e5e7eb" stroke-width="1.5"/>
  <rect x="545" y="467" width="4" height="5" fill="#e5e7eb"/>
  <rect x="545" y="480" width="4" height="5" fill="#e5e7eb"/>
  <rect class="button" x="576" y="464" width="42" height="26" rx="5"/>
  <rect x="594" y="473" width="8" height="8" fill="none" stroke="#e5e7eb" stroke-width="1.4"/>
  <rect x="596" y="466" width="4" height="5" fill="#e5e7eb"/>
  <rect x="596" y="482" width="4" height="5" fill="#e5e7eb"/>
  <rect x="587" y="476" width="5" height="3" fill="#e5e7eb"/>
  <rect x="604" y="476" width="5" height="3" fill="#e5e7eb"/>
  <rect class="button" x="700" y="464" width="42" height="26" rx="5"/>
  <rect x="713" y="473" width="16" height="12" fill="none" stroke="#f87171" stroke-width="1.7"/>
  <rect x="711" y="477" width="3" height="6" fill="#f87171"/>
  <rect x="728" y="477" width="3" height="6" fill="#f87171"/>
  <rect x="720" y="466" width="3" height="11" fill="#f87171"/>

  <path class="line" d="M584 202 H890"/>
  <text class="calloutTitle" x="905" y="196">Status bar</text>
  <text class="callout" x="905" y="221">
    <tspan x="905" dy="0">orientation indicator, Z1X/Z2X,</tspan>
    <tspan x="905" dy="20">overlay, center overlay, marker</tspan>
    <tspan x="905" dy="20">clear, live state, TF/free space</tspan>
  </text>

  <path class="line" d="M666 320 H890"/>
  <text class="calloutTitle" x="905" y="324">Thermal viewport</text>
  <text class="callout" x="905" y="349">
    <tspan x="905" dy="0">80x60 Lepton source</tspan>
    <tspan x="905" dy="20">scaled inside viewer area</tspan>
  </text>

  <path class="line" d="M684 332 L760 332 L760 388 H890"/>
  <text class="calloutTitle" x="905" y="388">Palette scale</text>
  <text class="callout" x="905" y="413">
    <tspan x="905" dy="0">current auto low/high</tspan>
    <tspan x="905" dy="20">temperature range</tspan>
  </text>

  <path class="line" d="M725 398 L820 398 L820 448 H890"/>
  <text class="calloutTitle" x="905" y="448">Readouts</text>
  <text class="callout" x="905" y="473">
    <tspan x="905" dy="0">center temperature,</tspan>
    <tspan x="905" dy="20">range mode, RGB666 palette</tspan>
  </text>

  <path class="line-left" d="M334 392 H118"/>
  <text class="calloutTitle" x="38" y="376">Spot markers</text>
  <text class="callout" x="38" y="401">
    <tspan x="38" dy="0">square hot/cold</tspan>
    <tspan x="38" dy="20">and up to three</tspan>
    <tspan x="38" dy="20">custom spot markers</tspan>
  </text>

  <path class="line-left" d="M347 490 V542 H240"/>
  <text class="calloutTitle" x="58" y="524">Palette icon</text>
  <text class="callout" x="58" y="549">
    <tspan x="58" dy="0">Cycles Ironbow, White,</tspan>
    <tspan x="58" dy="20">Black, Histogram, Lava,</tspan>
    <tspan x="58" dy="20">Hot Iron, Medical, Arctic,</tspan>
    <tspan x="58" dy="20">Rainbow, and Red Hot</tspan>
  </text>

  <path class="line-left" d="M397 490 V648 H240"/>
  <text class="calloutTitle" x="58" y="630">Image quality icon</text>
  <text class="callout" x="58" y="655">
    <tspan x="58" dy="0">Cycles Detail,</tspan>
    <tspan x="58" dy="20">Balanced, and Smooth</tspan>
    <tspan x="58" dy="20">noise handling</tspan>
  </text>

  <path class="line" d="M447 490 V530 H890"/>
  <text class="calloutTitle" x="905" y="512">CAP button</text>
  <text class="callout" x="905" y="537">
    <tspan x="905" dy="0">saves timestamped BMP</tspan>
    <tspan x="905" dy="20">and optional raw frame</tspan>
  </text>

  <path class="line" d="M547 490 V600 H890"/>
  <text class="calloutTitle" x="905" y="582">Review/Delete button</text>
  <text class="callout" x="905" y="607">
    <tspan x="905" dy="0">opens latest capture</tspan>
    <tspan x="905" dy="20">review and delete action</tspan>
  </text>

  <path class="line" d="M597 490 V658 H890"/>
  <text class="calloutTitle" x="905" y="640">SETUP button</text>
  <text class="callout" x="905" y="665">
    <tspan x="905" dy="0">opens settings for path,</tspan>
    <tspan x="905" dy="20">idle, rotation, raw save</tspan>
  </text>

  <path class="line" d="M721 490 V730 H890"/>
  <text class="calloutTitle" x="905" y="714">Power icon</text>
  <text class="callout" x="905" y="739">
    <tspan x="905" dy="0">red PMIC shutdown;</tspan>
    <tspan x="905" dy="20">wake with physical PWR</tspan>
  </text>

  <path class="line-left" d="M312 191 V138 H118"/>
  <text class="calloutTitle" x="38" y="112">Status Icons</text>
  <text class="callout" x="38" y="137">
    <tspan x="38" dy="0">QMI8658</tspan>
    <tspan x="38" dy="20">auto-rotation;</tspan>
    <tspan x="38" dy="20">Z1X/Z2X, hi/low,</tspan>
    <tspan x="38" dy="20">center toggles</tspan>
  </text>

  <path class="line-left" d="M246 290 H118"/>
  <text class="calloutTitle" x="38" y="274">Overlay</text>
  <text class="callout" x="38" y="299">
    <tspan x="38" dy="0">center plus</tspan>
    <tspan x="38" dy="20">marker toggled</tspan>
    <tspan x="38" dy="20">separately</tspan>
  </text>
</svg>
